<?xml version="1.0" encoding="utf-8"?>
<!-- Generator: Adobe Illustrator 16.0.3, SVG Export Plug-In . SVG Version: 6.00 Build 0)  -->
<!DOCTYPE svg PUBLIC "-//W3C//DTD SVG 1.1//EN" "http://www.w3.org/Graphics/SVG/1.1/DTD/svg11.dtd">
<svg version="1.1" id="Layer_1" xmlns="http://www.w3.org/2000/svg" xmlns:xlink="http://www.w3.org/1999/xlink" x="0px" y="0px"
	 width="512px" height="512px" viewBox="0 0 512 512" enable-background="new 0 0 512 512" xml:space="preserve">
<path d="M86.4,480h339.2c12.301,0,22.4-9.9,22.4-22.1V278c0-12.2-10-22-22.4-22H161v-62.9c0-27.3,9.9-61.1,28.1-80.3l0,0v-0.3
	C206.7,93.9,231,83,255.9,83h0.1h0.1c24.9,0,49.2,10.9,66.8,29.5v0.2v0.1c11.3,11.9,19.399,29.3,24,47.3H400.3
	c-5.899-31.3-19.7-61.8-39.2-82.4C334.9,49.9,297.4,32,256.1,32c-0.1,0-0.1,0-0.1,0h-0.1c-41.3,0-79,17.9-105.3,45.6
	C124.2,105.4,108,151.5,108,193v63H89h-2.6C74,256,64,265.9,64,278v179.9C64,470.1,74,480,86.4,480z"/>
</svg>
