<?xml version="1.0" encoding="utf-8"?>
<!-- Generator: Adobe Illustrator 16.0.3, SVG Export Plug-In . SVG Version: 6.00 Build 0)  -->
<!DOCTYPE svg PUBLIC "-//W3C//DTD SVG 1.1//EN" "http://www.w3.org/Graphics/SVG/1.1/DTD/svg11.dtd">
<svg version="1.1" id="Layer_1" xmlns="http://www.w3.org/2000/svg" xmlns:xlink="http://www.w3.org/1999/xlink" x="0px" y="0px"
	 width="512px" height="512px" viewBox="0 0 512 512" enable-background="new 0 0 512 512" xml:space="preserve">
<path d="M86.4,480h339.2c12.302,0,22.4-9.9,22.4-22.1V278c0-12.2-10-22-22.4-22H404v-62.9c0-41.5-16.2-87.6-42.6-115.4
	C335.1,49.9,297.4,32,256.1,32c-0.1,0-0.1,0-0.1,0h-0.1c-41.3,0-79,17.9-105.3,45.6C124.2,105.4,108,151.5,108,193v63H89h-2.6
	C74,256,64,265.9,64,278v179.9C64,470.1,74,480,86.4,480z M161,193.1c0-27.3,9.9-61.1,28.1-80.3l0,0v-0.3
	C206.7,93.9,231,83,255.9,83h0.1h0.1c24.9,0,49.2,10.9,66.8,29.5v0.2l-0.102,0.1c18.3,19.2,28.102,53,28.102,80.3V256h-17.5h-155
	H161V193.1z"/>
</svg>
